# xmcd
#
# Track frame offsets:
# 183
# 21770
# 38083
# 48895
# 66620
# 81363
# 100208
# 115538
# 141953
# 163295
# 182558
# 200735
# 222393
# 240140
# 257420
# 273295
#
# Disc length: 3929 seconds
#
#
# Revision: 0
# Processed by: cddbd v1.5.1PL2 Copyright (c) Steve Scherf et al.
# Submitted via: FreeRIP 2.00 
#
DISCID=e00f5710
DTITLE=Various Artist - 70s and 80s Soul Classics
DYEAR=1992
DGENRE=Soul
TTITLE0=Four Tops and Aretha Franklin - If Ever A Love There Was
TTITLE1=The Pointer Sisters - Dirty Work
TTITLE2=Daryl Hall and John Oates - Rich Girl
TTITLE3=Edna Wright - Oops Here I Go Again
TTITLE4=Main Ingredient - Work To Do
TTITLE5=Glen Goldsmith - Dreaming
TTITLE6=Band Of Gold - Love Songs Are Back Again
TTITLE7=Angela Bofill - Tropical Love
TTITLE8=Kashif With Melissa Morgan - Love Changes
TTITLE9=Dionne Warwick - Heartbreaker
TTITLE10=Ray Parker Jr. - Stay The Night
TTITLE11=Jermaine Jackson - Do What You Do ft The Jacksons
TTITLE12=Real To Reel - Love Like This
TTITLE13=Odyssey - Use It Up And Wear It Out
TTITLE14=The Drifters - Kissin' In The Back Row Of The Movies
TTITLE15=Watson T. Browne - Searching For A Star
EXTD=
EXTT0=
EXTT1=
EXTT2=
EXTT3=
EXTT4=
EXTT5=
EXTT6=
EXTT7=
EXTT8=
EXTT9=
EXTT10=
EXTT11=
EXTT12=
EXTT13=
EXTT14=
EXTT15=
PLAYORDER=
